<?xml version="1.0" encoding="UTF-8"?>
<svg id="Layer_1" data-name="Layer 1" xmlns="http://www.w3.org/2000/svg" version="1.1" viewBox="0 0 792 792">
  <defs>
    <style>
      .cls-1 {
        fill: #ee4c70;
      }

      .cls-1, .cls-2, .cls-3, .cls-4 {
        stroke-width: 0px;
      }

      .cls-2 {
        fill: #000;
      }

      .cls-3 {
        fill: #ef4e6c;
      }

      .cls-4 {
        fill: #fff;
      }
    </style>
  </defs>
  <path class="cls-3" d="M458.26,525.63c-1.26,0-2.21,0-2.91.07M404.04,363.93c-51.31.01-102.61.02-153.92.05-42.2.02-84.41.03-126.61.14-17.12.04-31.12-13.74-31-31.03.17-24.51.08-49.03,0-73.55-.04-11.92,4.79-21.18,14.77-27.59,5.96-3.82,12.88-4.33,19.72-4.34,53.89-.05,107.78,0,161.67,0,70.75,0,141.51.01,212.26-.07,3.06,0,3.93.68,3.93,3.91-.03,43.03.1,86.06.27,129.08,0,2.63-.71,3.62-3.52,3.6-16.65-.16-33.31-.14-49.96-.19M247.12,257.17c-10.21.07-19.04,2.21-26.7,7.79-8.28,6.04-13.21,14.3-14.89,24.46-1.92,11.69.86,22.12,8.44,31.2,6.32,7.57,14.71,11.48,24.27,13.04,12.86,2.09,24.6-.38,34.86-8.75,7.94-6.48,12.19-14.99,13.19-25.02.77-7.78-.03-15.72-4.01-22.45-7.97-13.47-20.33-19.97-35.17-20.28ZM422.73,319.07c-.04-.29-.07-.58-.11-.86-1.18-.07-2.36-.21-3.54-.21-8.07-.03-16.14-.09-24.2,0-2.27.03-3.21-.68-3.04-3.02.15-2.16,0-4.34.01-6.51.05-6.28-.87-5.74,5.84-5.74,8.27,0,16.55-.01,24.82-.05,1.43,0,3.05.15,3.01-2.1-.06-3.41-.08-6.83-.09-10.24,0-1.86-.96-2.54-2.74-2.51-2.79.05-5.59-.03-8.38,0-6,.05-11.99.16-17.99.19-4.23.02-4.52-.3-4.48-4.25.03-2.07.17-4.15-.02-6.2-.25-2.72.94-3.77,3.53-3.77,5.27.01,10.54-.05,15.81-.07,5.17-.02,10.34-.07,15.52-.02,2.64.03,3.78-1.1,3.63-3.75-.12-2.06-.02-4.14-.04-6.2q-.04-5.27-5.41-5.28c-15.61-.08-31.23-.17-46.84-.28-4.09-.03-4.46.29-4.45,4.5,0,.62-.04,1.24-.04,1.86-.02,21.62,0,43.24-.09,64.85-.01,2.71,1.08,3.7,3.67,3.69,9.72-.03,19.45.06,29.17-.04,1.04-.01,2.7-.73,3.02-1.54,2.49-6.32,7.15-10.21,13.44-12.44ZM328.37,307.99c-.88-1.25-1.31-1.7-1.54-2.24-4.19-9.42-8.38-18.85-12.54-28.29-2.45-5.57-4.76-11.2-7.37-16.69-.49-1.03-2.09-2.08-3.24-2.15-4.64-.27-9.3-.21-13.96-.18-2.78.02-3.29.9-2.15,3.49,1.12,2.55,2.36,5.05,3.44,7.61,3.73,8.84,7.37,17.72,11.12,26.56,4.64,10.91,9.33,21.81,14.1,32.67.82,1.87,1.3,4.35,4.19,4.33,4.65-.04,9.31.02,13.96-.22.98-.05,2.2-.97,2.78-1.84,1-1.51,1.63-3.29,2.35-4.98,5.18-12.15,10.32-24.31,15.52-36.45,3.89-9.09,7.87-18.14,11.76-27.23,1.24-2.89.65-3.85-2.42-3.94-3.82-.1-7.67-.27-11.47.03-1.34.1-2.99,1.21-3.79,2.35-1.33,1.91-2.14,4.19-3.09,6.36-3.01,6.87-5.99,13.74-8.96,20.62-2.81,6.49-5.59,12.99-8.68,20.17ZM146.93,295.5s.04,0,.06,0c0,11.17-.02,22.34.01,33.5,0,3.61.54,4.1,4.16,4.11,5.17.01,10.34-.03,15.51-.03,10.34,0,20.68-.04,31.02.1,2.93.04,4.5-.71,4.37-3.94-.1-2.47.25-4.96.19-7.43-.09-3.71-.74-4.26-4.46-4.26-9.31.01-18.61.04-27.92.05-4.53,0-4.53-.01-4.53-4.64,0-16.54.01-33.09.02-49.63,0-4.76-.01-4.78-4.88-4.87-2.89-.05-5.79-.04-8.69-.07-4.52-.04-4.87.3-4.87,4.86,0,10.75,0,21.51,0,32.26Z"/>
  <path class="cls-3" d="M513.65,227.57c1.22-.09,2.43-.27,3.63-.27,38.98-.02,77.97.11,116.95-.09,18.24-.1,31.89,13.75,31.97,31.51.11,24.92.44,49.85-.11,74.76-.38,17.14-12.8,30.19-30.68,30.22-38.98.07-77.97,0-116.95-.02-4.87,0-4.92-.06-4.92-4.94-.04-43.22-.07-86.44-.1-129.67,0-.4.11-.8.21-1.49ZM568.56,255.22c-4.06.42-9.58,1.32-14.62,4.8-6.84,4.72-11.16,10.86-12.82,18.95-1.92,9.38-.33,18.23,6.19,25.18,11.99,12.81,24.57,25.06,36.94,37.52,3.46,3.49,6.79,3.7,10.27.25,12.67-12.6,25.47-25.09,37.73-38.09,10.39-11.01,8.42-31.71-3.3-41.32-11.22-9.2-24.96-10.08-37.06-2.21-1.79,1.16-2.92,1.05-4.62-.1-5.1-3.43-10.79-5.12-18.71-4.99Z"/>
  <path class="cls-2" d="M454.58,214.1c-59.99,0-119.99,0-179.98,0-1.76,0-3.53.09-5.27-.09-2.4-.25-3.78-1.74-3.74-4.14.03-2.24,1.35-3.64,3.59-4.01.91-.15,1.86-.09,2.79-.09,121.33,0,242.66,0,363.99.01,22.14,0,42.47,15,49.12,36.12.28.89.5,1.79.7,2.7.59,2.6-.25,4.52-2.86,5.36-2.18.7-4.25-.72-5.27-3.19-1.68-4.09-3.01-8.43-5.35-12.12-8.22-12.95-20.25-20.09-35.57-20.4-21.61-.43-43.23-.16-64.85-.17-39.1-.01-78.2,0-117.3,0h0Z"/>
  <path class="cls-2" d="M170.72,214.15c-15.72,0-31.44-.13-47.16.03-24.76.25-43.65,19.28-43.8,44.11-.13,20.79-.04,41.58-.04,62.36,0,2.4-.26,4.62-3.1,5.35-2.48.64-4.64-.7-5.07-3.2-.16-.91-.1-1.86-.1-2.79,0-20.79-.02-41.58,0-62.36.04-28.54,23.13-51.78,51.64-51.84,32.16-.07,64.33-.03,96.49-.02.83,0,1.67-.03,2.47.12,2.08.38,3.36,1.65,3.42,3.8.07,2.23-1.01,3.76-3.28,4.23-.8.17-1.64.16-2.47.16-16.34,0-32.68,0-49.02,0,0,.02,0,.04,0,.07Z"/>
  <path class="cls-2" d="M406.89,376.91c61.49,0,122.97,0,184.46,0,9.61,0,13.68,1.24,13.72,4.19.04,2.95-4.11,4.25-13.66,4.25-123.61,0-247.22,0-370.84,0-.85,0-1.71.01-2.56,0-7.42-.11-11.12-1.52-11.12-4.22,0-2.7,3.74-4.19,11.07-4.21,20.5-.04,40.99-.02,61.49-.02,42.48,0,84.97,0,127.45,0Z"/>
  <path class="cls-2" d="M687.5,301.41c0,10.85.03,21.7,0,32.55-.07,22.75-16.13,43.55-38.09,49.4-.8.21-1.61.38-2.42.53-3.22.6-5.28-.48-5.81-3.02-.51-2.48.99-4.39,4.14-5.15,12.3-2.97,21.61-10.01,28.04-20.84,3.93-6.62,5.86-13.87,5.86-21.57.03-21.7,0-43.4,0-65.11,0-1.03-.05-2.07.02-3.1.18-2.79,1.74-4.42,4.17-4.41,2.49,0,4,1.58,4.07,4.43.08,3.2.03,6.41.03,9.61,0,8.89,0,17.78,0,26.66Z"/>
  <path class="cls-2" d="M150.92,384.94c-11.06,0-22.19.76-33.17-.16-22.09-1.85-40.43-18.74-45.18-40.45-.99-4.55-.17-6.85,2.65-7.43,3.06-.63,4.52.81,5.57,5.46,4.55,20.19,21.65,34.25,42.26,34.44,18.83.18,37.65.07,56.48.09.93,0,1.86-.03,2.79.02,2.53.16,4.14,1.48,4.24,4.04.1,2.59-1.54,3.95-4,4.29-1.02.14-2.06.1-3.1.11-9.52,0-19.03,0-28.55,0,0-.14,0-.28,0-.42Z"/>
  <path class="cls-1" d="M626.87,399.74c5.71,0,11.05,0,16.4,0,1.03,0,2.08-.06,3.09.12,2,.35,3.08,1.57,2.98,3.68-.1,2.17-1.61,2.79-3.38,2.83-4.75.1-9.5.11-14.25.11-4.94,0-5.08.2-4.95,4.99.13,4.44.11,8.88.08,13.32-.01,2.35-2.14,4.79-4.08,4.56-2.64-.31-3.08-2.29-3.07-4.55.03-4.96-.05-9.92.03-14.88.04-2.48-.87-3.54-3.47-3.47-4.95.13-9.92.03-14.87,0-2.37-.02-4.48-.61-4.51-3.48-.03-2.89,2.26-3.17,4.37-3.21,5.06-.09,10.12-.17,15.18,0,2.55.08,3.29-1.03,3.27-3.3-.03-4.96.07-9.92.01-14.87-.03-2.41.53-4.42,3.18-4.89,2-.35,3.93,2.08,3.97,4.98.08,5.77.02,11.54.02,18.06Z"/>
  <path class="cls-3" d="M249.55,174.32c0,2.38.12,4.76-.03,7.13-.17,2.68.92,3.75,3.59,3.71,4.86-.08,9.72-.05,14.58.09,1.27.04,2.84.3,3.69,1.08.7.65,1.04,2.48.62,3.33-.48.96-1.97,1.94-3.06,1.99-4.85.22-9.71.1-14.57.14-4.78.03-4.83.11-4.83,4.87,0,4.65-.03,9.31,0,13.96.02,2.42-.82,4.04-3.48,4.14-2.85.11-3.07-1.9-3.12-3.97-.14-5.17-.31-10.33-.31-15.5,0-2.27-1.04-3.22-3.14-3.25-4.55-.08-9.09-.09-13.64-.17-1.33-.02-2.77.11-3.97-.34-.91-.34-2.24-1.62-2.13-2.25.24-1.31,1.07-2.78,2.12-3.58.84-.64,2.36-.49,3.59-.5,4.65-.07,9.31-.11,13.96-.07,2.5.02,3.57-1.16,3.55-3.59-.04-4.76-.05-9.51-.05-14.27,0-3.92.84-5.27,3.33-5.08,3.13.25,3.3,2.57,3.27,4.98-.03,2.38,0,4.76,0,7.14h.05Z"/>
  <path class="cls-4" d="M247.92,256.89c14.83.31,27.2,6.81,35.17,20.28,3.98,6.73,4.79,14.67,4.01,22.45-.99,10.03-5.25,18.54-13.19,25.02-10.26,8.37-22,10.85-34.86,8.75-9.56-1.56-17.95-5.47-24.27-13.04-7.58-9.08-10.37-19.52-8.44-31.2,1.67-10.16,6.61-18.42,14.89-24.46,7.65-5.58,16.49-7.72,26.7-7.79ZM247.01,273.3c-14.15-.17-22.6,9.31-22.32,22.97.22,11.23,8.32,21.56,21.38,21.66,13.94.11,22.38-9.64,22.53-22.84.12-10.77-8.26-22.49-21.58-21.79Z"/>
  <path class="cls-4" d="M423.52,318.79c-6.3,2.24-10.95,6.13-13.44,12.44-.32.81-1.98,1.53-3.02,1.54-9.72.1-19.44,0-29.17.04-2.58,0-3.68-.99-3.67-3.69.08-21.62.07-43.24.09-64.85,0-.62.04-1.24.04-1.86,0-4.2.36-4.53,4.45-4.5,15.61.11,31.23.19,46.84.28q5.36.03,5.41,5.28c.02,2.07-.08,4.14.04,6.2.16,2.65-.99,3.78-3.63,3.75-5.17-.06-10.34,0-15.52.02-5.27.02-10.54.08-15.81.07-2.58,0-3.78,1.04-3.53,3.77.19,2.05.04,4.13.02,6.2-.05,3.95.24,4.28,4.48,4.25,6-.03,11.99-.14,17.99-.19,2.79-.02,5.59.06,8.38,0,1.78-.03,2.73.65,2.74,2.51,0,3.41.03,6.83.09,10.24.04,2.25-1.58,2.1-3.01,2.1-8.27.04-16.55.05-24.82.05-6.71,0-5.79-.54-5.84,5.74-.02,2.17.14,4.35-.01,6.51-.17,2.34.78,3.05,3.04,3.02,8.07-.09,16.14-.03,24.2,0,1.18,0,2.36.14,3.54.21.04.29.07.58.11.86Z"/>
  <path class="cls-4" d="M329.16,307.71c3.09-7.18,5.88-13.68,8.68-20.17,2.98-6.88,5.95-13.76,8.96-20.62.95-2.16,1.76-4.45,3.09-6.36.8-1.14,2.44-2.25,3.79-2.35,3.8-.3,7.65-.13,11.47-.03,3.06.08,3.66,1.04,2.42,3.94-3.89,9.09-7.87,18.14-11.76,27.23-5.2,12.14-10.34,24.3-15.52,36.45-.72,1.69-1.34,3.46-2.35,4.98-.58.87-1.8,1.79-2.78,1.84-4.64.23-9.3.18-13.96.22-2.89.02-3.37-2.46-4.19-4.33-4.77-10.86-9.45-21.76-14.1-32.67-3.76-8.83-7.39-17.71-11.12-26.56-1.08-2.57-2.33-5.06-3.44-7.61-1.14-2.6-.63-3.47,2.15-3.49,4.65-.04,9.32-.09,13.96.18,1.15.07,2.75,1.12,3.24,2.15,2.61,5.49,4.92,11.13,7.37,16.69,4.16,9.44,8.34,18.86,12.54,28.29.24.53.67.98,1.54,2.24Z"/>
  <path class="cls-4" d="M147.73,295.22c0-10.75,0-21.51,0-32.26,0-4.55.35-4.9,4.87-4.86,2.9.03,5.79.01,8.69.07,4.87.09,4.88.11,4.88,4.87,0,16.54,0,33.09-.02,49.63,0,4.63,0,4.64,4.53,4.64,9.31,0,18.61-.03,27.92-.05,3.72,0,4.37.55,4.46,4.26.06,2.47-.29,4.96-.19,7.43.14,3.23-1.44,3.98-4.37,3.94-10.34-.14-20.68-.09-31.02-.1-5.17,0-10.34.04-15.51.03-3.63,0-4.15-.5-4.16-4.11-.03-11.17-.01-22.34-.01-33.5-.02,0-.04,0-.06,0Z"/>
  <path class="cls-4" d="M568.56,255.22c7.92-.13,13.61,1.56,18.71,4.99,1.71,1.15,2.83,1.26,4.62.1,12.1-7.87,25.84-6.99,37.06,2.21,11.72,9.61,13.69,30.31,3.3,41.32-12.26,13-25.06,25.48-37.73,38.09-3.47,3.45-6.8,3.24-10.27-.25-12.36-12.46-24.94-24.72-36.94-37.52-6.51-6.96-8.11-15.81-6.19-25.18,1.66-8.08,5.97-14.23,12.82-18.95,5.04-3.47,10.56-4.38,14.62-4.8Z"/>
  <path class="cls-4" d="M592.57,503.23c-2.76-.95-4.02-2.65-3.49-5.65.45-2.55,1.9-4.05,4.65-3.95,1.01.04,2.05.28,3.03.15,1.78-.23,2.49.46,2.43,2.19-.05,1.64,0,3.29-.04,4.94-.12,4.02-1.7,5.72-5.65,5.55-1.25-.05-2.46-1.1-3.69-1.7,1.08-.6,2.16-1.19,2.76-1.53ZM594.18,495.75c-1.02,1.14-2.22,1.96-2.1,2.46.2.83,1.16,1.76,2,2.02.42.13,1.71-1.07,1.8-1.77.09-.67-.87-1.47-1.7-2.71Z"/>
  <path class="cls-4" d="M600.39,498.53c0-1.03-.05-2.06.02-3.08.03-.47.18-1.09.5-1.37,2.4-2.04,8.18.09,8.64,3.19.21,1.41.35,2.9.13,4.29-.1.61-1.14,1.28-1.86,1.47-.32.08-1.2-.9-1.36-1.52-.25-.97.05-2.07-.17-3.06-.15-.67-.78-1.23-1.2-1.84-.62.57-1.53,1.03-1.77,1.73-.32.92.03,2.06-.19,3.05-.14.62-.79,1.13-1.2,1.69-.51-.59-1.26-1.11-1.47-1.8-.26-.85-.06-1.83-.06-2.76,0,0,0,0-.01,0Z"/>
  <path class="cls-4" d="M587.95,491.5c.25,3.53.63,6.15.51,8.76-.04.97-1.24,1.89-1.91,2.83-.58-.91-1.59-1.8-1.65-2.74-.17-2.75-.06-5.53.19-8.28.05-.59,1.1-1.44,1.76-1.5.5-.05,1.11.95,1.1.94Z"/>
  <path class="cls-3" d="M247.01,273.3c13.33-.7,21.71,11.02,21.58,21.79-.15,13.2-8.59,22.95-22.53,22.84-13.06-.1-21.16-10.44-21.38-21.66-.27-13.66,8.18-23.14,22.32-22.97Z"/>
  <path class="cls-3" d="M133.6,389.3"/>
  <path class="cls-4" d="M420.06,317.71c3.11-.05,5.34.61,7.34,1.96.67.45,1.11.49,1.81.04,4.75-3.09,10.14-2.74,14.54.87,4.6,3.77,5.37,11.89,1.29,16.21-4.81,5.1-9.83,10-14.81,14.95-1.36,1.36-2.67,1.27-4.03-.1-4.85-4.89-9.79-9.7-14.49-14.72-2.56-2.73-3.18-6.2-2.43-9.88.65-3.17,2.34-5.58,5.03-7.43,1.98-1.36,4.14-1.72,5.74-1.88Z"/>
</svg>