<?xml version="1.0" encoding="UTF-8"?>
<svg id="Layer_1" data-name="Layer 1" xmlns="http://www.w3.org/2000/svg" version="1.1" viewBox="0 0 792 792">
  <defs>
    <style>
      .cls-1 {
        fill: #ed4c50;
      }

      .cls-1, .cls-2, .cls-3, .cls-4, .cls-5 {
        stroke-width: 0px;
      }

      .cls-2 {
        fill: #ed3571;
      }

      .cls-3 {
        fill: #ef484b;
      }

      .cls-4 {
        fill: #ed316b;
      }

      .cls-5 {
        fill: #f16923;
      }
    </style>
  </defs>
  <path class="cls-3" d="M335.99,422.16c-4.39-5.92-9.42-11.48-13.03-17.85-7.66-13.51-9.94-28.1-5.65-43.24,1.42-5.01,3.84-9.75,6.1-15.37-1.69,1.15-3.12,1.84-4.2,2.9-14.53,14.38-20.04,32.02-18.07,52.06,2.51,25.61,15.22,46.61,30.68,66.27,16.5,20.97,36.07,38.49,59.45,51.44,29.3,16.23,60.23,21.76,92.66,11.16,17.52-5.72,32.61-15.8,44.86-29.8,19.12-21.85,29.22-47.49,32.26-76.18,3.12-29.54-1.82-57.56-16.35-83.5-11.81-21.08-28.13-37.91-49.92-48.99-9.73-4.95-19.78-8.82-30.79-9.83-.86-.08-16.81-4.14-17.6-7.56,6.03.92,24.66,1.08,27.85,1.74,12.88,2.68,24.61,7.82,35.85,14.92,28.49,18,45.66,43.98,54.63,75.66,7.16,25.29,6.53,50.93-.07,76.35-5.21,20.05-14.03,38.39-27.02,54.6-17.51,21.85-39.28,37.23-66.83,43.69-24,5.63-47.06,2.05-69.32-7.76-33.83-14.9-60.47-38.68-82.74-67.73-12.02-15.68-21.31-32.73-25.54-52.24-4.92-22.65-1.69-43.94,11.97-62.87,12.1-16.77,28.53-25.84,49.78-25.16,17.83.57,34.9,12.67,41.03,29.46.3.83.76,1.6,1.57,3.29,1.06-2.3,1.86-3.94,2.59-5.62,6.28-14.46,24.47-28.59,43.13-26.64,3.12.33,8.13,1.31,13.97,4.73-.9,1.38-2.32,3.03-4.34,3.39-2.26.4-4.23-1-4.78-1.35-6.33-4.06-22.58,4.5-23.86,5.19-17.5,9.39-24.3,25.98-25.36,30.24-.3,1.21-.72,2.4-1.29,4.28-1.31-3.99-2.25-7.37-3.5-10.63-8.37-21.71-36.4-35.1-61.69-21.67-7.86,4.18-11.27,12.54-13.73,20.74-1.61,5.34-2.34,10.52-2.33,15.56.03,15.72,7.31,27.51,12.69,36.3,2.71,4.42,5.25,7.83,6.95,9.99Z"/>
  <path class="cls-4" d="M407.86,323.18c-2.68-3.88-5.13-7.96-8.09-11.62-12.86-15.85-28.83-26.8-49.32-30.19-26.06-4.32-49.13,2.97-70.02,18.39-24.16,17.83-39.13,41.84-47.03,70.51-6.28,22.78-6.29,45.76-1.71,68.84.12.62.12,1.26-.02,1.92-3.99-11.51-6.98-23.21-7.89-35.41-2-26.78,2.89-52.18,16.19-75.54,16.02-28.15,38.51-48.8,70.7-56.95,20.77-5.26,41.15-3.89,60.53,5.78,8.44,4.21,15.54,10.29,22.44,16.81,8.04,7.6,11.48,17.16,14.22,27.46Z"/>
  <path class="cls-5" d="M331.79,450.82c5.99,4.17,11.77,8.67,18.01,12.43,19.37,11.69,39.99,19.7,63.08,18.61,28.64-1.36,50.62-14.78,66.55-38.27,9.05-13.34,14.47-28.12,15.2-44.34.33-7.35.6-19.41-5.78-31.79-12.27-23.82-40.58-31.51-38.76-36.04.34-.85,1.79-1.71,7.16-1.31,5.47,2.16,12.82,5.77,20.39,11.78,9.26,7.36,15.08,15.34,18.49,20.88,1.66,4.17,3.59,8.12,4.81,12.29,5.24,17.82,3.35,35.29-2.78,52.59-5.43,15.34-13.73,28.85-25.84,39.64-26.46,23.59-56.86,28.98-90.22,17.86-19.92-6.64-36.52-18.52-50.32-34.34Z"/>
  <path class="cls-2" d="M335.99,422.16s.17-.1.17-.1c2.08,1.79,4.26,3.47,6.22,5.39,10.19,9.98,22.27,17.39,34.06,25.21,7.39,4.9,14.73,9.89,19.82,17.44.26.39.8.59,1.46,1.05,11.09-14.39,27.68-21.47,41.68-31.96,4.21-3.16,8.1-6.74,12.18-10.09,1.55-1.28,3.2-2.44,4.8-3.66l-.08-.08c-2.39,2.59-4.43,5.66-7.23,7.68-11.14,8.03-22.7,15.47-33.72,23.64-6.43,4.77-12.15,10.5-18.34,15.93-10.49-14.52-27.56-21.66-41.62-32.67-6.88-5.39-12.96-11.82-19.39-17.77Z"/>
  <path class="cls-1" d="M456.37,425.44c3.11-4.01,6.38-7.92,9.32-12.06,3.88-5.48,12.21-18.77,13.44-34.57,1.41-18.07-7.41-31.3-6.64-31.58.65-.24,6.17,9.37,7.63,22,0,0,.75,6.44-.04,13.11-2.45,20.89-20.39,39.7-23.71,43.1Z"/>
</svg>